<svg width="1363" height="477" viewBox="0 0 1363 477" fill="none" xmlns="http://www.w3.org/2000/svg">
<g clip-path="url(#clip0_25_9)">
<path d="M1361.15 271.657C1360.43 269.912 1359.01 268.865 1356.44 268.865C1355.02 268.865 1353.45 269.214 1351.45 269.912C1328.78 279.801 1272.75 304.233 1245.81 315.751C1225.99 324.244 1206.88 332.388 1195.76 332.388C1194.19 332.388 1192.77 332.271 1191.48 331.922C1186.78 330.526 1187.64 320.753 1187.64 320.637C1188.49 315.983 1190.06 311.562 1192.2 307.723C1195.48 300.975 1199.33 294.577 1203.32 288.643C1207.45 282.593 1211.73 276.66 1216.29 270.494C1217.15 269.447 1218.15 268.167 1219.14 266.538C1220 265.142 1220.28 264.211 1220.28 263.63C1220.28 262.35 1218.43 260.721 1215.72 260.721H1215.01C1214.01 260.838 1213.16 261.07 1211.45 262.815C1211.3 262.932 1199.47 271.657 1186.92 274.682C1166.53 279.569 1148 279.685 1124.76 280.267H1122.91C1096.96 280.267 1075 275.729 1055.9 266.538C1052.19 264.793 1049.34 264.095 1047.2 264.095C1039.64 264.095 1040.79 272.937 1040.79 272.937C1042.64 280.383 1043.21 287.829 1042.92 295.042C1042.78 297.369 1042.64 299.579 1042.35 301.79C1041.64 307.49 1040.21 312.959 1038.22 318.078C1037.79 319.241 1037.36 320.288 1036.79 321.451C1035.94 323.313 1035.08 325.058 1034.08 326.687C1033.23 328.199 1032.37 329.595 1031.38 330.991C1030.23 332.62 1029.09 334.249 1027.81 335.645C1026.96 336.692 1025.96 337.739 1024.96 338.67L1021.54 341.811C1020.54 342.626 1019.54 343.44 1018.54 344.138C1015.83 345.999 1012.98 347.628 1009.99 348.792C1009.99 348.792 1009.85 348.792 1009.85 348.908C1007.28 349.955 1004.43 350.421 1001.58 350.421C994.734 350.421 987.89 347.279 985.894 340.764C985.609 339.601 985.324 338.437 985.324 337.041C985.324 336.111 985.324 335.296 985.467 334.249C985.609 333.202 985.752 332.155 986.037 331.108C986.037 330.759 986.18 330.526 986.18 330.177C986.465 328.781 986.892 327.269 987.177 325.756C987.463 324.942 987.748 324.011 987.89 323.197C988.033 322.615 988.318 322.033 988.461 321.568C988.603 321.102 988.746 320.637 988.888 320.288C989.601 318.427 990.314 316.449 991.17 314.587C991.455 313.889 991.882 313.191 992.168 312.377C993.593 309.468 995.019 306.676 996.73 303.768C997.443 302.488 998.156 301.208 999.011 299.928C1000.01 298.299 1001.01 296.671 1002.15 295.158C1002.29 294.926 1002.43 294.809 1002.58 294.577C1004.86 291.086 1007.42 287.712 1009.99 284.571C1016.26 276.66 1022.82 269.447 1028.67 263.746C1041.93 250.832 1042.92 248.389 1040.93 246.644C1040.07 245.946 1038.65 244.899 1036.37 244.899C1033.94 244.899 1030.66 246.179 1026.39 250.716C1016.98 260.838 1003.29 273.868 995.019 281.546C990.884 285.502 988.033 288.061 988.033 288.061C987.605 288.41 987.177 288.876 986.75 289.225C985.039 290.737 983.471 292.133 981.76 293.413C976.627 297.601 971.494 301.441 966.504 304.815C966.077 305.047 965.791 305.28 965.364 305.513C963.368 306.909 961.229 308.072 959.233 309.352C958.52 309.817 957.807 310.283 957.094 310.632C955.526 311.562 953.958 312.377 952.532 313.191C952.104 313.424 951.819 313.657 951.392 313.773C947.257 315.983 943.122 317.961 939.13 319.706C933.427 322.149 927.724 324.244 922.307 325.989C907.622 330.526 893.935 332.388 881.816 332.62C880.39 332.62 879.107 332.737 877.681 332.737C860.002 332.737 846.458 329.595 839.614 327.152C829.064 323.546 818.656 317.729 810.529 311.562C808.676 310.166 806.965 308.77 805.397 307.374C801.119 303.651 797.84 299.928 795.987 296.787C799.979 297.252 804.541 297.485 809.531 297.718C811.812 297.834 814.094 297.834 816.517 297.834H817.088C823.789 297.834 831.202 297.485 839.044 296.671C841.468 296.438 843.891 296.205 846.458 295.856C857.721 294.46 866.275 290.97 872.263 286.433C876.826 283.059 879.962 279.22 881.531 275.264C882.244 273.519 882.814 271.774 882.956 270.145C883.099 268.749 883.099 267.353 882.956 265.957C882.671 263.979 882.101 262.117 881.246 260.256C880.675 259.092 879.962 258.045 879.107 257.115C876.541 254.09 872.976 251.298 868.699 249.203C863.852 246.76 857.864 245.248 850.45 245.248C847.598 245.248 844.462 245.48 841.182 245.946C841.468 245.713 841.753 245.597 842.038 245.364C848.708 241.174 855.267 236.868 861.713 232.45C868.699 227.68 875.4 222.91 881.673 218.024C892.937 209.415 903.059 200.922 912.327 192.429C921.879 183.587 930.433 174.861 938.132 166.252C940.128 164.041 941.982 161.947 943.835 159.737C952.532 149.499 959.803 139.493 966.219 129.837C966.647 129.255 966.932 128.674 967.36 128.092C969.213 125.3 970.924 122.508 972.492 119.832C973.205 118.668 973.918 117.505 974.488 116.341L977.055 111.804C979.336 107.616 981.475 103.66 983.471 99.7046C985.609 95.4 987.463 91.2117 989.173 87.2561V87.3724C989.173 87.2561 989.174 87.2561 989.316 87.1398C991.312 82.6024 992.88 78.4141 994.449 74.3422C995.162 72.3644 995.732 70.5029 996.445 68.7578C997.158 66.431 997.87 64.2205 998.583 62.01C1004 43.3954 1004.86 31.1795 1005 28.8527C1006 16.6368 1006 0.581707 993.308 0.581707C989.316 0.581707 984.041 2.21049 977.055 6.04976C971.209 9.30732 965.649 13.3793 960.374 17.8002C954.956 22.3376 949.823 27.2239 944.691 32.4593C939.558 37.6946 935.138 42.8137 931.146 47.5837C915.463 65.5002 900.35 84.1149 886.378 102.613C883.954 105.754 881.673 109.012 879.392 112.153C876.255 116.458 872.976 120.879 869.982 125.3L867.986 128.092C865.705 131.35 863.281 134.723 861 138.097C856.01 145.31 851.163 152.524 846.458 159.737C845.032 161.947 843.606 164.274 842.038 166.485C835.337 176.839 828.921 187.193 822.648 197.78C819.084 203.83 815.519 209.88 812.098 216.046L811.812 216.628C811.67 216.86 811.527 216.977 811.527 217.21C810.529 218.838 809.674 220.583 808.676 222.212C805.967 226.75 803.115 231.52 800.264 236.406C798.411 239.547 796.557 242.805 794.704 246.062L792.137 250.6C791.71 251.414 791.139 252.228 790.712 253.043C789.571 255.253 788.288 257.464 787.147 259.674C786.149 261.536 785.294 263.281 784.438 265.142C784.296 265.375 784.296 265.608 784.153 265.724L783.298 266.073C782.157 266.538 779.733 267.585 776.454 269.098C773.46 270.378 769.896 272.006 765.619 273.868L764.763 274.217C761.056 275.846 756.779 277.707 752.359 279.685C749.651 280.848 746.799 282.128 743.805 283.408C741.239 284.571 738.53 285.735 735.821 286.898C722.134 292.948 707.306 299.347 694.19 305.047C691.623 306.211 689.199 307.258 686.776 308.305C686.063 308.654 685.207 309.003 684.352 309.352C683.354 309.817 682.499 310.166 681.5 310.632C679.219 311.679 676.938 312.609 674.8 313.54C672.661 314.471 670.522 315.402 668.669 316.216C661.255 319.474 653.984 322.266 647.14 324.709C644.146 325.756 641.295 326.57 638.586 327.385C631.315 329.479 624.899 330.759 620.051 330.759C618.055 330.759 616.202 330.526 614.776 330.061C614.349 329.944 614.063 329.828 613.778 329.595C612.352 328.781 611.497 327.269 611.069 325.756C610.357 323.429 610.499 320.986 610.499 320.986C611.354 316.332 612.923 311.911 615.061 308.072L615.917 306.327C617.2 303.651 618.626 301.092 620.051 298.532C622.047 295.158 624.044 292.017 626.04 288.876C628.891 284.571 632.028 280.267 635.164 275.962L639.014 270.727C639.727 269.912 640.439 268.865 641.295 267.702C641.58 267.353 641.723 267.004 642.008 266.655C642.863 265.142 643.148 264.211 643.148 263.746C643.148 263.281 642.721 262.699 642.293 262.117C641.437 261.303 640.297 260.721 638.586 260.721H637.873C636.875 260.838 636.02 261.07 634.309 262.815C634.309 262.815 633.311 263.746 631.742 265.142C629.176 267.353 625.327 270.727 623.045 272.239C621.762 273.17 620.479 274.1 618.768 275.264C615.917 277.358 612.21 279.918 607.362 283.291C604.083 285.618 600.519 288.178 596.812 290.97C595.957 291.552 595.244 292.133 594.388 292.599C592.392 294.111 590.254 295.624 587.972 297.136C585.406 298.881 582.84 300.743 580.131 302.72C579.133 303.419 577.85 304.349 576.139 305.513C572.147 308.305 566.159 312.26 559.6 316.798C559.173 317.03 558.745 317.38 558.46 317.612C554.753 320.172 550.761 322.731 546.626 325.407C545.343 326.338 543.917 327.152 542.634 328.083C538.357 330.875 534.08 333.784 529.945 336.46C518.967 343.673 509.272 349.839 504.852 352.282C499.862 355.074 495.015 357.634 490.452 359.96C477.336 366.708 466.358 371.827 460.512 374.038C455.807 375.783 451.387 377.179 446.968 377.761C445.399 377.993 443.974 378.11 442.548 378.11C440.694 378.11 438.841 377.877 436.987 377.528C435.562 377.295 434.136 376.946 432.71 376.365C428.148 374.736 424.726 371.478 422.445 366.592C422.16 366.01 421.875 365.429 421.732 364.73C420.877 362.404 420.021 359.495 419.594 355.889C419.451 355.19 419.451 354.492 419.308 353.794C419.166 351.7 419.023 349.49 419.166 346.93C419.166 344.022 419.451 340.88 419.879 337.39C420.592 332.504 421.59 327.152 423.3 321.102C424.013 318.31 424.869 315.518 425.724 312.726C427.15 307.956 428.718 303.302 430.286 298.881C432.14 293.646 433.851 288.643 435.419 284.571C435.704 283.99 435.847 283.291 436.132 282.71C437.843 278.405 439.126 275.031 440.124 273.17C440.552 272.355 440.837 271.774 440.979 271.541C446.255 268.865 451.245 266.189 456.235 263.513C460.655 261.187 464.932 258.743 469.066 256.417C474.627 253.275 479.902 250.134 485.035 246.993C487.031 245.83 488.884 244.55 490.88 243.386C491.593 242.921 492.306 242.456 493.019 242.107C497.724 239.082 502.286 236.057 506.848 233.032C510.698 230.356 514.547 227.68 518.254 225.004C519.965 223.841 521.533 222.561 523.244 221.398C526.238 219.187 529.09 216.977 531.799 214.883C534.793 212.439 537.787 210.113 540.781 207.786C544.06 205.11 547.197 202.434 550.191 199.758C551.474 198.595 552.899 197.431 554.183 196.268C557.747 193.127 561.026 189.986 564.305 186.844C566.016 185.216 567.585 183.703 569.153 182.074C571.862 179.399 574.428 176.723 576.994 174.047C578.563 172.418 580.131 170.789 581.557 169.16C584.836 165.554 587.972 162.064 590.966 158.457C592.392 156.712 593.818 154.967 595.244 153.338C597.24 150.895 599.093 148.452 600.947 146.009C602.943 143.449 604.796 140.89 606.507 138.33C608.931 134.956 611.212 131.582 613.351 128.208C615.347 125.067 617.343 122.042 619.053 119.017C623.473 111.571 627.323 104.358 630.602 97.6105C644.574 68.4088 648.566 45.6059 649.707 34.7861C649.849 32.9246 649.992 31.4122 650.134 30.3651C650.134 29.5507 650.277 28.8527 650.277 28.5037C650.562 25.3624 650.705 21.9885 650.705 18.731C650.562 15.3571 650.277 12.0995 649.422 9.30732C648.281 5.23537 646 1.9778 642.15 0.81439C641.152 0.465366 639.869 0.232683 638.586 0.232683H638.016C636.59 0.232683 635.164 0.465366 633.453 0.930732C631.885 1.27976 630.174 1.86146 628.321 2.67585C627.323 3.49024 626.182 3.95561 624.899 4.65366C624.186 5.00268 623.473 5.35171 622.76 5.81707C622.618 5.93341 622.475 5.93341 622.333 6.04976C621.192 6.63146 620.051 7.32951 619.053 8.02756C617.913 8.72561 616.63 9.54 615.489 10.3544C614.349 11.1688 613.351 11.8668 612.21 12.6812C610.784 13.7283 609.216 14.8917 607.933 16.0551C607.22 16.6368 606.507 17.1022 605.937 17.6839C605.366 18.1493 604.939 18.6146 604.368 19.08C603.085 20.2434 601.802 21.2905 600.519 22.4539C599.806 23.1519 598.951 23.85 598.238 24.548C596.669 26.0605 595.101 27.5729 593.533 29.2017C592.677 30.1324 591.679 30.9468 590.824 31.8776C590.681 31.9939 590.539 32.2266 590.396 32.3429C589.683 33.1573 588.828 33.9717 588.115 34.7861C586.974 35.9495 585.976 37.1129 584.978 38.16L582.412 40.9522C581.414 42.1156 580.559 43.1627 579.561 44.2098C578.848 45.0241 578.278 45.8385 577.565 46.6529C577.422 46.8856 577.137 47.2346 576.852 47.4673C575.996 48.398 575.141 49.4451 574.285 50.3759C573.573 51.1902 572.86 52.121 572.147 52.9354C571.006 54.3315 569.866 55.6112 568.725 57.0073C567.87 58.0544 566.872 59.1015 566.016 60.1485C564.305 62.2427 562.452 64.3368 560.741 66.431C558.745 68.8741 556.749 71.201 554.753 73.6441C553.185 75.5056 551.616 77.4834 550.191 79.3449C549.62 80.1593 548.907 80.9737 548.337 81.6717C546.911 83.5332 545.343 85.3946 543.917 87.2561C542.064 89.5829 540.353 91.7934 538.642 94.1202L532.226 102.497L530.943 104.242C528.662 107.383 526.381 110.408 524.1 113.549C518.539 121.111 513.264 128.674 507.846 136.352C505.565 139.61 503.427 142.867 501.145 146.009C498.151 150.546 495.157 154.967 492.163 159.504C492.021 159.62 492.021 159.737 491.878 159.853C489.597 163.343 487.316 166.95 485.035 170.44C482.183 174.861 479.474 179.282 476.765 183.703C474.912 186.844 472.916 189.986 471.062 193.127C469.352 195.919 467.641 198.828 465.93 201.62C463.649 205.459 461.51 209.298 459.229 213.254C458.659 214.301 458.088 215.232 457.518 216.279C456.663 217.675 455.807 219.187 454.952 220.7C453.669 222.91 452.243 225.237 450.96 227.564C449.819 229.425 448.678 231.403 447.538 233.265C444.829 237.802 442.12 242.339 439.554 246.993C437.273 251.065 434.991 255.253 432.995 259.209C431.997 261.187 430.999 263.281 430.144 265.259C430.144 265.259 425.867 267.12 419.166 270.029C410.469 273.751 397.78 279.336 384.093 285.386C383.095 285.851 382.239 286.2 381.241 286.665C371.404 290.97 361.424 295.391 352.156 299.347C349.02 300.743 346.026 302.022 343.174 303.302C338.327 305.396 333.907 307.374 330.2 309.003C327.919 310.05 325.78 310.981 323.927 311.679C319.65 313.54 316.798 314.82 316.085 315.053L314.375 315.751C313.376 316.216 312.521 316.565 311.523 316.914C306.676 318.892 301.971 320.87 297.408 322.499C294.272 323.662 291.278 324.709 288.426 325.64C286.573 326.221 284.719 326.803 283.008 327.269C281.44 327.734 280.014 328.083 278.589 328.432C274.026 329.479 270.034 330.177 266.612 330.177H266.042C264.331 330.177 262.906 329.944 261.622 329.595C260.624 329.363 259.912 328.781 259.484 327.967C258.486 326.57 258.058 324.593 258.058 322.964C257.915 321.219 258.058 319.706 258.058 319.706C258.201 319.241 258.343 318.659 258.486 318.194C259.484 314.006 260.767 310.166 262.763 306.792C266.042 300.045 269.749 293.646 273.884 287.712C276.165 284.339 278.589 281.081 281.012 277.707C281.583 276.893 282.153 276.195 282.723 275.38C283.579 274.333 284.292 273.17 285.147 272.123C285.575 271.425 286.145 270.843 286.573 270.145C286.715 270.029 286.858 269.796 287 269.68C287.998 268.632 288.854 267.353 289.994 265.724C290.137 265.608 290.137 265.491 290.137 265.375C290.565 264.677 290.707 264.095 290.85 263.746C290.992 263.397 290.992 263.048 290.992 262.815C290.992 261.536 289.139 259.907 286.43 259.907H285.575C284.862 260.023 284.006 260.256 282.866 261.303C282.581 261.536 282.296 261.768 282.01 262.117C282.01 262.117 282.01 262.234 281.868 262.234C281.298 262.815 279.016 264.793 276.593 266.887C275.88 267.469 275.167 268.167 274.454 268.749C273.313 269.68 272.173 270.61 271.317 271.192C271.175 271.308 271.032 271.308 271.032 271.425C270.462 271.89 269.749 272.355 269.179 272.821C265.9 275.148 261.765 278.056 255.349 282.593C247.793 288.061 238.668 294.577 228.118 302.139C226.835 303.07 225.266 304.117 223.983 305.047C221.132 307.025 218.28 309.003 215.286 311.097C212.862 312.842 210.296 314.471 207.73 316.216C205.449 317.845 203.167 319.357 200.744 320.986C197.892 322.964 195.041 324.825 192.047 326.803C178.075 336.227 164.958 344.487 152.982 351.351C140.863 358.215 129.457 364.032 119.192 368.686C116.34 370.082 112.776 371.595 108.784 373.223C104.222 375.085 99.6592 376.365 95.2395 376.946C93.8137 377.179 92.2454 377.295 90.8197 377.295C87.3979 377.295 84.1188 376.714 80.9821 375.667C75.9921 373.921 72.2852 369.966 70.004 364.032C67.01 356.47 65.5842 342.044 71.5723 320.521C77.9881 297.601 78.1307 298.649 79.699 296.787C95.382 288.876 109.924 280.499 123.469 272.006C125.037 271.076 126.463 270.029 128.031 269.098L132.309 266.306C136.301 263.63 140.15 261.07 143.999 258.394C145.425 257.347 146.851 256.417 148.277 255.37C148.99 254.904 149.56 254.439 150.273 253.857L150.558 253.624C151.698 252.81 152.696 252.112 153.837 251.298C154.55 250.832 155.263 250.25 155.976 249.669C157.401 248.622 158.97 247.458 160.395 246.411C161.679 245.48 162.962 244.433 164.102 243.503C165.385 242.456 166.669 241.525 167.952 240.478C202.597 212.672 228.118 183.82 246.937 156.596C248.363 154.618 249.646 152.524 250.929 150.546C253.211 147.056 255.492 143.449 257.63 139.959C258.628 138.446 259.484 136.818 260.339 135.305C293.987 77.9488 298.121 32.2266 298.549 27.922C298.121 16.0551 297.979 0 285.29 0C281.298 0 276.022 1.62878 269.036 5.46805C263.191 8.72561 257.63 12.7976 252.355 17.2185C246.937 21.7559 241.805 26.6422 236.672 31.8776C231.539 37.1129 227.12 42.1156 223.128 47.002C209.298 62.8244 196.039 78.9958 183.635 95.2837C182.352 96.9124 181.211 98.4249 179.928 100.054C179.358 100.752 178.93 101.333 178.502 102.031L178.074 102.73C175.793 105.754 173.512 108.896 171.231 112.037L170.661 112.735C169.092 114.829 167.667 116.923 166.098 119.017L164.387 121.46C163.532 122.624 162.819 123.787 161.964 124.951C161.393 125.649 160.966 126.347 160.395 127.045L158.685 129.488C158.399 129.837 158.257 130.186 157.972 130.535C156.403 132.746 154.835 135.072 153.267 137.399C152.696 138.214 152.126 139.144 151.556 139.959L149.845 142.402L148.134 144.845C147.279 146.009 146.566 147.172 145.853 148.335C145.283 149.15 144.855 149.964 144.285 150.662C143.572 151.826 142.716 152.873 142.003 154.036L140.293 156.479C139.722 157.294 139.152 158.108 138.582 159.039C138.154 159.737 137.726 160.319 137.299 161.017L135.588 163.809C134.732 165.089 134.019 166.252 133.164 167.532L124.182 181.842C123.754 182.423 123.469 183.005 123.041 183.703L119.619 189.288C119.192 189.869 118.907 190.567 118.479 191.149C118.194 191.731 117.766 192.312 117.481 192.894C116.34 194.756 115.2 196.733 114.059 198.595L111.921 202.085C111.065 203.481 110.352 204.877 109.497 206.273C108.641 207.67 107.928 209.066 107.073 210.462C106.218 211.858 105.362 213.37 104.507 214.883C104.364 215.232 104.079 215.464 103.936 215.813L103.509 216.511C102.511 218.257 101.513 220.234 100.23 222.561C100.23 222.678 100.087 222.678 100.087 222.794C98.6612 225.47 97.0929 228.378 95.5246 231.636C94.5266 233.73 93.386 235.824 92.388 238.035C91.6751 239.431 90.9623 240.827 90.2494 242.339C81.5524 259.907 72.1426 280.15 67.5803 290.039C67.5803 290.039 44.4834 302.604 4.13518 317.263C0.855994 318.892 -0.569739 320.404 0.000554167 323.662C0.428274 325.872 2.56687 327.036 4.84804 327.036C5.56091 327.036 6.41635 326.919 7.12921 326.687C37.6399 315.983 63.7308 301.906 63.7308 301.906C63.7308 301.906 60.309 309.585 56.8873 329.479C54.6061 342.626 53.7507 351.584 56.0318 361.008V361.124C56.7447 364.498 57.7427 367.872 59.0259 371.246C63.5882 382.298 72.5703 387.417 87.1128 387.417C99.2315 387.417 111.493 384.392 123.184 378.575C135.873 372.176 148.704 365.312 161.108 357.983C170.376 352.282 179.215 346.814 187.057 341.579C194.185 336.925 201.884 331.806 210.011 326.221C210.581 325.872 211.151 325.523 211.579 325.058L217.14 321.219C219.563 319.474 222.13 317.729 224.696 315.983C227.12 314.238 229.686 312.493 232.395 310.632C233.821 309.585 235.246 308.654 236.815 307.607L255.492 294.809C255.492 294.809 248.363 309.003 246.795 313.191C246.652 313.657 246.51 314.122 246.225 314.704C245.939 315.751 245.512 317.147 245.084 318.543C244.941 318.892 244.941 319.241 244.799 319.59C244.514 320.87 244.228 322.266 244.086 323.546C243.658 326.454 243.516 329.246 244.086 331.69C244.228 332.155 244.228 332.504 244.371 332.969C246.937 340.415 253.211 343.207 261.48 343.207C265.472 343.207 269.749 342.509 274.454 341.462C278.589 340.531 283.008 339.135 287.571 337.623C293.131 335.645 299.119 333.318 304.965 330.875C306.533 330.177 308.101 329.595 309.67 328.897C312.236 327.734 314.945 326.687 317.511 325.523C317.939 325.291 334.05 318.194 357.717 307.84C363.99 305.047 370.691 302.139 377.82 298.998C386.802 295.042 396.354 290.854 406.334 286.433C407.19 286.084 408.045 285.618 408.901 285.269C414.318 282.826 419.879 280.383 425.439 277.94C425.439 277.94 422.017 287.363 418.168 299.114C416.742 303.535 415.316 308.189 414.033 312.842C412.322 318.892 410.897 325.058 409.899 330.177C409.328 333.784 408.758 337.041 408.33 340.066C407.902 343.324 407.76 346.349 407.617 349.257C407.617 351.7 407.76 353.911 408.045 356.238C408.045 356.587 408.045 356.936 408.188 357.285C408.33 358.681 408.615 360.193 409.043 361.706V361.822C409.613 364.73 410.469 367.755 411.609 370.548C411.752 371.013 411.895 371.478 412.037 371.827C413.891 376.132 416.314 379.506 419.451 382.065C423.728 385.439 429.146 387.301 436.132 387.882C436.56 387.882 437.13 387.882 437.558 387.999C438.413 387.999 439.269 388.115 440.124 388.115C452.243 388.115 464.504 385.09 476.195 379.273C488.884 372.874 501.573 366.01 514.12 358.681C516.686 357.052 523.244 352.864 531.371 347.512C538.214 342.975 546.199 337.739 554.04 332.504C557.462 330.177 560.884 327.85 564.305 325.64C572.575 320.055 579.988 315.053 584.978 311.679C587.117 310.166 588.828 309.003 589.969 308.305C589.969 308.305 590.539 307.956 591.252 307.49C593.818 305.745 599.806 301.557 604.083 298.649C606.792 296.787 608.646 295.507 608.646 295.507C608.646 295.507 601.517 309.701 599.949 313.889C598.523 318.078 595.529 327.734 597.667 333.667C599.949 340.182 604.939 343.207 611.782 343.789C612.78 343.905 613.778 343.905 614.776 343.905C615.632 343.905 616.487 343.905 617.485 343.789C619.339 343.673 621.335 343.44 623.473 343.091C629.604 342.044 636.447 339.95 643.576 337.39C647.711 335.878 651.988 334.249 656.408 332.388C661.255 330.41 666.103 328.316 670.807 326.221C671.378 325.989 673.374 325.058 676.368 323.778C678.079 323.08 680.075 322.15 682.356 321.102C684.067 320.288 686.063 319.474 688.059 318.543C689.912 317.729 692.051 316.798 694.047 315.867C709.873 308.887 730.973 299.579 748.225 291.901C750.506 290.97 752.645 289.923 754.783 288.992C758.205 287.48 761.199 286.084 764.05 284.92C768.755 282.826 772.605 281.081 775.171 280.034C776.027 279.685 776.882 279.336 777.31 279.103C778.165 278.754 778.593 278.521 778.593 278.521C778.593 278.521 776.454 283.059 773.175 289.574C771.749 292.366 770.181 295.624 768.47 298.998C766.189 303.419 763.623 308.189 761.056 312.726C760.629 313.54 760.201 314.238 759.773 315.053C758.205 317.729 756.779 320.404 755.211 322.848C751.361 329.246 745.944 335.761 744.518 340.531C743.805 342.742 743.948 344.72 745.373 346.116C746.799 346.465 747.94 346.581 749.08 346.581C751.219 346.581 752.787 345.999 754.498 344.836C755.924 343.789 757.349 342.393 758.775 340.531C759.06 340.182 759.203 339.95 759.488 339.601C760.914 337.739 762.482 335.412 764.05 332.969C764.906 331.573 765.761 330.293 766.617 328.781C767.757 326.687 769.04 324.593 770.181 322.382C771.036 320.986 771.749 319.474 772.462 318.078C773.032 316.914 773.603 315.867 774.173 314.82C775.456 312.26 776.739 309.817 777.737 307.723C778.45 306.211 779.163 304.931 779.733 303.651C780.874 301.441 781.587 299.696 782.015 298.998C782.157 298.765 782.3 298.416 782.585 297.951C782.87 298.532 783.155 299.114 783.583 299.696C786.719 305.629 791.282 311.33 797.27 316.565C814.379 331.34 842.466 341.695 875.543 342.509C876.541 342.509 877.539 342.626 878.537 342.626H879.677C888.089 342.626 895.931 342.044 903.202 340.997C918.315 338.903 931.289 334.831 942.267 330.177C946.544 328.316 950.679 326.338 954.243 324.36C956.382 323.197 958.52 321.917 960.516 320.753L963.938 318.659L965.649 317.612C967.075 316.681 968.5 315.634 969.784 314.82C970.639 314.238 971.494 313.54 972.207 312.959C973.918 311.679 975.486 310.399 976.77 309.352C977.34 308.887 977.768 308.421 978.338 308.072C980.049 306.676 981.332 305.396 982.33 304.466C982.473 304.233 982.758 304.117 982.9 304C983.185 303.651 983.471 303.419 983.756 303.186H983.898C983.898 303.186 984.041 303.302 983.898 303.302C983.756 303.535 983.471 303.884 983.328 304.117C983.185 304.349 982.9 304.582 982.758 304.931C981.76 306.211 980.904 307.723 979.906 309.236C979.479 309.934 979.051 310.632 978.766 311.33C977.768 313.075 976.912 314.936 976.057 316.798C975.914 317.03 975.772 317.38 975.629 317.612C975.201 318.427 974.916 319.357 974.631 320.288V320.521C973.348 323.895 972.35 327.385 971.922 330.991C971.637 333.086 971.494 335.18 971.637 337.158C972.065 348.21 978.623 357.983 997.728 360.891C998.298 361.008 998.868 361.008 999.581 361.008H1000.72C1005.43 361.008 1012.98 359.844 1020.97 356.238C1025.67 354.143 1030.52 351.119 1034.94 346.93C1035.51 346.465 1035.94 345.883 1036.51 345.301C1037.93 343.789 1039.36 342.16 1040.79 340.299C1041.5 339.368 1042.21 338.321 1042.92 337.274C1043.78 335.994 1044.49 334.598 1045.35 333.202C1045.63 332.62 1045.92 332.155 1046.2 331.573C1046.77 330.526 1047.06 329.595 1047.63 328.548C1048.06 327.734 1048.48 326.919 1048.77 326.105C1049.2 324.942 1049.62 323.895 1050.05 322.848C1052.19 317.147 1053.76 311.795 1054.61 306.909C1055.04 304.698 1055.33 302.604 1055.61 300.626C1057.04 286.316 1053.76 277.242 1053.05 275.613C1053.05 275.497 1053.05 275.497 1053.19 275.497C1071.3 287.48 1103.66 289.574 1119.34 289.574H1122.91C1174.66 288.41 1193.48 281.546 1195.76 280.499C1195.76 280.499 1195.9 280.499 1195.9 280.616C1194.34 283.291 1179.22 309.934 1177.94 313.889C1176.37 318.078 1173.52 327.734 1175.66 333.667C1178.23 341.113 1184.5 343.905 1192.77 343.905C1207.45 343.905 1228.84 334.947 1248.66 326.221C1253.36 324.127 1327.78 291.435 1349.74 281.779C1363.43 275.613 1361.72 274.566 1361.15 271.657ZM98.9464 251.065C99.6592 249.552 100.515 248.04 101.228 246.528C102.083 244.782 102.938 243.037 103.794 241.409C106.36 236.29 108.499 231.985 109.639 229.774C110.21 228.727 110.495 228.029 110.495 228.029C110.637 227.913 110.637 227.68 110.78 227.564C111.493 226.168 112.348 224.772 113.061 223.376C113.631 222.329 114.202 221.398 114.629 220.351C115.627 218.606 116.483 216.86 117.481 214.999C118.194 213.603 119.049 212.207 119.762 210.811C120.76 208.949 121.901 207.088 122.899 205.226C123.184 204.645 123.612 204.063 123.897 203.481C124.182 202.9 124.61 202.318 124.895 201.62C131.168 190.684 137.869 179.864 144.712 169.16C145.283 168.346 145.71 167.532 146.281 166.717C147.564 164.74 148.847 162.762 150.273 160.668C150.273 160.551 150.415 160.551 150.415 160.435C151.556 158.806 152.554 157.177 153.694 155.549C154.122 154.967 154.55 154.385 154.835 153.803C158.827 147.87 162.819 142.053 166.954 136.236C167.952 134.84 169.092 133.327 170.233 131.699C170.376 131.466 170.661 131.233 170.803 130.884C171.659 129.721 172.514 128.557 173.37 127.278C174.653 125.532 175.936 123.671 177.219 121.81C177.504 121.344 177.789 120.995 178.074 120.53C180.641 116.923 183.35 113.2 186.344 109.245C187.484 107.849 188.482 106.336 189.623 104.824L193.045 100.286C211.864 75.2729 235.389 46.3039 258.914 26.5259C262.193 23.85 269.179 17.2185 274.454 17.2185C279.159 17.2185 282.581 22.3376 281.012 40.0215C278.446 51.6556 272.886 86.209 247.65 129.953C246.795 131.466 245.939 132.978 244.941 134.491C242.803 138.097 240.522 141.704 238.098 145.427C237.1 146.823 236.102 148.335 235.104 149.848C217.995 175.094 194.328 202.55 161.393 230.007L157.544 233.148L153.98 236.057C152.696 236.988 151.556 238.035 150.273 238.965C148.99 240.012 147.564 241.06 146.281 242.107C145.283 242.805 144.285 243.619 143.429 244.317C142.431 245.015 141.576 245.713 140.578 246.411C139.009 247.575 137.584 248.622 136.015 249.785C134.59 250.832 133.164 251.879 131.738 252.81C128.602 255.02 125.322 257.347 122.043 259.558C120.76 260.372 119.477 261.303 118.194 262.117L113.917 264.91C104.507 271.076 94.384 277.242 83.8336 283.291C83.1207 283.524 91.39 266.306 98.9464 251.065ZM458.231 237.337C459.371 235.359 460.512 233.497 461.367 232.101L463.506 228.611C463.791 228.029 464.076 227.448 464.362 226.982C466.072 223.725 467.783 220.583 469.494 217.326C471.633 213.487 473.771 209.531 476.052 205.692C477.336 203.365 478.761 200.922 480.187 198.595L485.747 189.171C488.314 184.983 490.88 180.678 493.589 176.49C495.87 172.883 498.151 169.277 500.433 165.787C502.999 161.831 505.565 157.992 508.274 154.036C510.555 150.662 512.836 147.405 515.118 144.147C516.828 141.704 518.397 139.377 520.108 137.05C522.674 133.444 525.668 129.372 528.805 124.834C531.371 121.228 534.08 117.505 537.074 113.433C538.785 111.106 540.496 108.663 542.349 106.22C544.773 102.962 547.197 99.7046 549.763 96.4471C551.189 94.4693 552.757 92.4915 554.325 90.5137L555.608 88.7685C560.884 81.9044 566.586 74.9239 572.289 68.1761C572.86 67.478 573.43 66.8963 574 66.1983C576.852 62.8244 579.703 59.5668 582.555 56.4256L583.838 55.0295C584.836 53.9824 585.691 53.0517 586.547 52.0046C587.117 51.4229 587.687 50.7249 588.258 50.1432C589.256 48.9798 590.396 47.9327 591.394 46.7693C592.392 45.8385 593.248 44.9078 594.103 43.9771C595.244 42.8137 596.384 41.6502 597.525 40.6032C598.523 39.5561 599.663 38.6254 600.661 37.5783C601.945 36.2985 603.228 35.1351 604.511 33.9717C605.652 32.9246 606.935 31.7612 608.075 30.7141C608.931 29.8998 609.786 29.2017 610.642 28.5037C611.069 28.1546 611.354 27.8056 611.782 27.5729C612.78 26.7585 614.063 25.5951 615.632 24.4317C616.63 23.7337 617.628 22.9193 618.626 22.2212C619.909 21.2905 621.335 20.4761 622.76 19.778C623.901 19.1963 625.042 18.8473 626.04 18.4983C626.895 18.2656 627.608 18.1493 628.463 18.1493C628.748 18.1493 629.176 18.1493 629.461 18.2656C633.881 18.9637 636.59 24.548 633.738 41.0685C632.313 45.4895 630.602 54.2151 626.752 66.1983C624.471 73.4115 621.477 81.788 617.343 91.0954C614.063 98.4249 610.214 106.22 605.509 114.596C603.798 117.738 601.802 120.995 599.806 124.253C597.525 127.859 595.101 131.466 592.535 135.189C590.966 137.632 589.113 139.959 587.402 142.402L583.125 147.986C580.273 151.709 577.137 155.549 573.858 159.388C572.432 161.133 570.864 162.878 569.295 164.623C566.444 167.764 563.45 171.022 560.456 174.28C558.602 176.257 556.606 178.235 554.61 180.213C551.616 183.238 548.337 186.263 545.058 189.404C543.49 190.8 541.921 192.312 540.353 193.709C537.216 196.501 534.08 199.177 530.801 201.969C527.664 204.645 524.385 207.32 520.963 209.996C518.112 212.207 515.26 214.417 512.266 216.628C510.555 217.908 508.987 219.071 507.276 220.351C503.569 223.027 499.72 225.819 495.728 228.611C491.308 231.636 486.746 234.661 482.041 237.686C481.043 238.267 480.187 238.849 479.189 239.547C477.051 240.827 474.912 242.223 472.773 243.503C467.356 246.877 461.795 250.134 455.95 253.392C452.67 255.253 449.391 257.115 445.97 258.976C445.542 258.976 447.395 255.719 449.819 251.414C452.671 246.76 455.665 241.641 458.231 237.337ZM867.559 262.699C868.984 264.095 869.982 265.957 870.125 268.051V269.563C869.982 271.192 869.412 273.053 868.271 274.799C864.992 279.918 856.58 285.037 840.042 287.48C836.478 287.945 832.628 288.41 828.208 288.643C824.074 288.876 820.367 288.992 816.945 288.992C814.521 288.992 812.383 288.992 810.244 288.876C802.973 288.527 797.555 287.829 793.563 287.014C791.995 286.665 790.712 286.316 789.571 285.967C789.143 285.851 788.716 285.735 788.43 285.618C790.712 281.081 792.85 276.66 794.133 274.1C796.7 272.472 799.551 270.959 802.403 269.563L808.818 266.422C821.935 260.372 836.192 256.184 847.883 256.184C855.297 256.184 861.856 257.929 866.418 261.885C866.846 262.117 867.273 262.35 867.559 262.699ZM804.826 250.832C805.682 249.436 806.537 247.807 807.393 246.295C808.248 244.782 809.246 243.27 810.102 241.758C813.381 236.29 816.375 231.17 817.515 229.425L817.943 228.727C822.22 220.583 826.64 212.556 831.202 204.528C835.337 197.199 839.757 189.986 844.177 182.656C851.163 171.487 858.291 160.319 865.848 149.382C868.699 145.194 871.551 141.122 874.545 137.05C877.539 132.978 880.818 128.208 884.667 122.857C887.234 119.25 890.085 115.294 893.079 111.222C893.792 110.292 894.505 109.245 895.218 108.314C897.499 105.289 899.78 102.264 902.061 99.0066C920.596 74.4585 943.55 46.5366 966.362 27.3402C969.641 24.548 977.482 18.0329 983.043 18.0329C988.033 18.0329 991.312 23.1519 988.318 40.8358C986.892 45.3732 985.039 54.5641 981.047 67.0127C980.334 69.1068 979.621 71.3173 978.766 73.6441C977.91 75.8546 977.197 78.1815 976.199 80.5083C974.631 84.4639 972.92 88.5359 971.067 92.8405C970.496 94.0039 969.926 95.1673 969.356 96.4471C968.786 97.6105 968.358 98.6576 967.787 99.821C967.217 100.984 966.647 102.264 965.934 103.428C965.506 104.358 964.936 105.289 964.508 106.336C963.368 108.547 962.085 110.757 960.801 113.084C959.803 114.829 958.805 116.574 957.665 118.436C957.522 118.785 957.38 119.017 957.094 119.366L954.101 124.253C953.53 125.183 952.96 126.114 952.39 126.929C950.821 129.372 949.253 131.815 947.542 134.258C933.285 155.083 913.61 177.886 886.521 200.922C874.83 210.927 861.713 220.932 847.028 230.821C842.893 233.614 838.616 236.406 834.196 239.198C829.206 242.339 824.074 245.48 818.656 248.622C814.094 251.298 809.246 254.09 804.399 256.766C802.973 257.58 801.547 258.394 800.121 259.092C799.979 259.092 800.264 258.394 800.834 257.231C801.975 255.951 803.258 253.508 804.826 250.832Z" fill="#FFFDD0"/>
</g>
<defs>
<clipPath id="clip0_25_9">
<rect width="1363" height="477" fill="white"/>
</clipPath>
</defs>
</svg>
